<!--?xml version="1.0" encoding="utf-8"?-->
<!-- Generator: Adobe Illustrator 18.1.1, SVG Export Plug-In . SVG Version: 6.00 Build 0)  -->

<svg version="1.1" id="_x32_" xmlns="http://www.w3.org/2000/svg" xmlns:xlink="http://www.w3.org/1999/xlink" x="0px" y="0px" viewBox="0 0 512 512" style="width: 48px; height: 48px; opacity: 1;" xml:space="preserve">
<style type="text/css">
	.st0{fill:#4B4B4B;}
</style>
<g>
	<path class="st0" d="M396.269,240.983l-0.082-109.907c0.082-11.889-4.707-23.25-13.01-31.759l-96.734-96.74
		c-2.58-2.54-6.438-3.282-9.77-1.872c-3.339,1.41-5.507,4.683-5.638,8.311l0.082,231.992L396.269,240.983z" style="fill: rgb(75, 75, 75);"></path>
	<path class="st0" d="M131.076,115.808c-11.888-0.074-23.249,4.707-31.758,13.01L2.577,225.558c-2.54,2.572-3.281,6.439-1.872,9.778
		c1.402,3.339,4.683,5.498,8.311,5.631l231.976-0.083l-0.017-125.16L131.076,115.808z" style="fill: rgb(75, 75, 75);"></path>
	<path class="st0" d="M115.725,271.018l0.082,109.908c-0.082,11.888,4.708,23.249,13.01,31.749l96.734,96.741
		c2.58,2.556,6.447,3.282,9.77,1.88c3.348-1.41,5.507-4.683,5.64-8.311l-0.083-231.992L115.725,271.018z" style="fill: rgb(75, 75, 75);"></path>
	<path class="st0" d="M511.289,276.666c-1.402-3.339-4.683-5.5-8.302-5.64l-231.985,0.091l0.017,125.152l109.908-0.083
		c11.88,0.083,23.241-4.708,31.749-13.001l96.741-96.75C511.964,283.863,512.706,280.005,511.289,276.666z" style="fill: rgb(75, 75, 75);"></path>
</g>
</svg>
